<?xml version="1.0" encoding="UTF-8"?>
<svg width="228.13mm" height="45.716mm" version="1.1" viewBox="0 0 228.13 45.716" xmlns="http://www.w3.org/2000/svg" xmlns:xlink="http://www.w3.org/1999/xlink">
 <defs>
  <path id="a-delta" d="m4.1707-41.333-2.2251 3.83-36.418 63.091-2.1971 3.83 4.4221 5e-4h77.257l-2.1969-3.8305-36.418-63.091zm-3.9379 17.042 27.593 48.583-55.651 3.88e-4z"/>
  <clipPath id="clipPath4115">
   <circle transform="matrix(.72344 0 0 .72344 117.75 53.037)" cx="194.84" cy="15.591" r="55.291"/>
  </clipPath>
 </defs>
 <g transform="translate(-7.642 -29.049)">
  <rect x="7.642" y="29.049" width="228.13" height="45.716" ry="22.858" fill-opacity=".37647"/>
  <g transform="matrix(.47103 0 0 .47103 15.715 34.95)" fill="#29e">
   <g transform="matrix(.92979 0 0 .92979 -207.32 -23.8)" clip-path="url(#clipPath4115)">
    <rect x="218.7" y="24.316" width="80" height="80" fill="#29e"/>
    <use transform="translate(255.81 65.678)" width="512" height="123" fill="#ffffff" xlink:href="#a-delta"/>
   </g>
  </g>
  <text x="49.53862" y="61.577557" fill="#2299ee" font-family="Arvo" font-size="35.278px" font-style="italic" letter-spacing="0px" stroke-width=".26458" word-spacing="0px" style="line-height:1.25" xml:space="preserve"><tspan x="49.53862" y="61.577557" fill="#2299ee" font-family="Arvo" font-size="35.278px" font-style="italic" stroke-width=".26458">interact.js</tspan></text>
 </g>
</svg>
