<?xml version="1.0" encoding="UTF-8"?>
<svg width="228.13mm" height="45.716mm" version="1.1" viewBox="0 0 228.13 45.716" xmlns="http://www.w3.org/2000/svg" xmlns:cc="http://creativecommons.org/ns#" xmlns:dc="http://purl.org/dc/elements/1.1/" xmlns:rdf="http://www.w3.org/1999/02/22-rdf-syntax-ns#" xmlns:xlink="http://www.w3.org/1999/xlink">
 <metadata>
  <rdf:RDF>
   <cc:Work rdf:about="">
    <dc:format>image/svg+xml</dc:format>
    <dc:type rdf:resource="http://purl.org/dc/dcmitype/StillImage"/>
    <dc:title/>
   </cc:Work>
  </rdf:RDF>
 </metadata>
 <defs>
  <path id="a-delta" d="m4.1707-41.333-2.2251 3.83-36.418 63.091-2.1971 3.83 4.4221 5e-4h77.257l-2.1969-3.8305-36.418-63.091zm-3.9379 17.042 27.593 48.583-55.651 3.88e-4z"/>
  <clipPath id="clipPath4115-13">
   <circle transform="matrix(.72344 0 0 .72344 117.75 53.037)" cx="194.84" cy="15.591" r="55.291"/>
  </clipPath>
 </defs>
 <g transform="translate(-7.642,-29.049)">
  <rect x="7.642" y="29.049" width="228.13" height="45.716" ry="22.858" fill-opacity=".37647"/>
  <g transform="matrix(.47103 0 0 .47103 15.715 34.95)" fill="#29e">
   <g transform="matrix(.92979 0 0 .92979 -207.32 -23.8)" clip-path="url(#clipPath4115-13)">
    <rect x="218.7" y="24.316" width="80" height="80" fill="#29e"/>
    <use transform="translate(255.81,65.678)" width="512" height="123" fill="#ffffff" xlink:href="#a-delta"/>
   </g>
  </g>
  <g fill="#29e" stroke-width=".26458" aria-label="interact.js">
   <path d="m53.143 45.168h6.6663l-3.4451 14.883h2.8594l-0.6718 2.9628h-6.3562l3.4451-14.883h-3.204zm3.2901-6.2873q0-0.46509 0.17226-0.8785 0.18948-0.41341 0.49954-0.70625 0.31006-0.31006 0.72348-0.48232 0.41341-0.18948 0.89573-0.18948 0.46509 0 0.8785 0.18948 0.41341 0.17226 0.70625 0.48232 0.31006 0.29284 0.48232 0.70625 0.18948 0.41341 0.18948 0.8785t-0.18948 0.89573q-0.17226 0.41341-0.48232 0.7407-0.29284 0.31006-0.70625 0.49954-0.41341 0.18948-0.8785 0.18948-0.48232 0-0.89573-0.18948-0.41341-0.18948-0.72348-0.49954-0.31006-0.32729-0.49954-0.7407-0.17226-0.43064-0.17226-0.89573z"/>
   <path d="m65.408 45.168h6.7352l-0.43064 1.8259q1.223-1.0163 2.67-1.5848 1.4642-0.56844 3.0834-0.56844 1.378 0 2.4805 0.41341 1.1197 0.41341 1.8259 1.2575 0.70625 0.84405 0.93018 2.1015 0.22393 1.2575-0.15503 2.9283l-1.9637 8.5094h2.5322l-0.6718 2.9628h-6.029l2.5666-11.042q0.48232-2.0326-0.31006-3.0662t-2.6872-1.0335q-1.3436 0-2.5494 0.58567-1.2058 0.56844-2.291 1.602l-2.98 12.954h-3.4968l3.4451-14.883h-3.4107z"/>
   <path d="m88.938 45.168h2.98l1.0508-4.2719 3.6346-1.4814-1.3608 5.7533h3.7552l-0.70625 2.9628h-3.7552l-2.2738 9.6291q-0.08613 0.34451-0.17226 0.70625-0.0689 0.34451-0.0689 0.7407 0 0.77515 0.41341 1.1024 0.43064 0.31006 1.3436 0.31006 0.98186 0 2.3599-0.56844l0.29284 2.4633q-0.91296 0.43064-1.757 0.6718-0.84405 0.25838-1.8776 0.25838-1.0852 0-1.9809-0.27561-0.89573-0.25838-1.4814-0.86128-0.58567-0.62012-0.77515-1.602-0.18948-0.99908 0.1378-2.446l2.4805-10.129h-2.9456z"/>
   <path d="m104.65 54.694q-0.0172 0.24116-0.0345 0.41341-0.0172 0.17226-0.0172 0.32729 0 1.0852 0.34451 2.0154 0.36174 0.93018 0.98186 1.6192 0.63735 0.6718 1.4986 1.068 0.87851 0.37896 1.912 0.37896 1.378 0 2.6183-0.55122 1.2575-0.56844 2.1015-1.6364l2.5494 1.8604q-0.58567 0.77515-1.3953 1.3953t-1.7915 1.068q-0.98186 0.43064-2.1015 0.65457-1.1024 0.24116-2.2566 0.24116-1.6537 0-3.1006-0.55122-1.4297-0.55122-2.5149-1.602-1.068-1.0508-1.6881-2.5666-0.6029-1.5331-0.6029-3.4623 0-2.2221 0.77515-4.1686 0.79238-1.9637 2.1704-3.4107 1.3953-1.4642 3.2901-2.3082 1.8948-0.84405 4.0997-0.84405 1.7053 0 3.0317 0.58567 1.3436 0.56844 2.2738 1.5159 0.93019 0.94741 1.4125 2.1876 0.48232 1.2402 0.48232 2.5494 0 0.8785-0.10336 1.7053-0.0861 0.8096-0.22393 1.5159zm6.3735-7.1314q-1.0335 0-1.9465 0.32729-0.89573 0.32729-1.6364 0.91296t-1.3091 1.378q-0.56845 0.79238-0.93019 1.7226h10.163q0.0172-1.068-0.29284-1.8776-0.29283-0.82683-0.8785-1.3608-0.56844-0.55122-1.378-0.82683-0.8096-0.27561-1.7915-0.27561z"/>
   <path d="m135.86 50.094h-3.4968l0.49954-2.1015q-1.6709 0-2.8422 0.86128-1.1713 0.84405-1.9293 2.2393l-2.0671 8.9573h2.9628l-0.6718 2.9628h-6.4596l3.4451-14.883h-3.4107l0.70625-2.9628h6.7352l-0.56844 2.446q0.48231-0.55122 1.0335-1.0163 0.55122-0.48232 1.1541-0.82683 0.62012-0.34451 1.2747-0.53399 0.6718-0.20671 1.3436-0.20671 0.62012 0 1.068 0.01723 0.44787 0.01723 0.94741 0.0689 0.51677 0.03445 1.4125 0.15503z"/>
   <path d="m149.47 61.808q-1.1541 0.77515-2.3254 1.1541-1.1541 0.36174-2.3944 0.36174-1.4642 0-2.7389-0.56844t-2.2221-1.5503q-0.93018-0.98186-1.4814-2.3082-0.53399-1.3436-0.53399-2.8767 0-2.4977 0.8785-4.582 0.87851-2.0843 2.3771-3.5829 1.5158-1.4986 3.514-2.3255 2.0154-0.82683 4.272-0.82683 1.2919 0 2.4288 0.39619 1.1369 0.37896 1.8604 0.99908l0.22393-0.93018h3.4623l-3.4451 14.883h2.7733l-0.6718 2.9628h-6.2529zm-3.9102-1.447q0.63735 0 1.2919-0.15503 0.6718-0.15503 1.2747-0.39619 0.6029-0.24116 1.1369-0.55122 0.534-0.32729 0.94741-0.6718l2.2221-9.543q-0.44786-0.56844-1.3953-0.96463-0.94741-0.41341-2.4805-0.41341-1.3264 0-2.6183 0.55122-1.2919 0.53399-2.3082 1.5675-1.0163 1.0163-1.6537 2.5149-0.63735 1.4814-0.63735 3.3762 0 1.1024 0.31006 1.9809 0.31006 0.86128 0.86128 1.4642 0.55122 0.6029 1.3264 0.93018 0.79238 0.31006 1.7226 0.31006z"/>
   <path d="m173.95 50.422q-0.27561-0.68902-0.7407-1.2058-0.44786-0.51677-1.0335-0.86128t-1.2747-0.51677q-0.68902-0.17226-1.4297-0.17226-0.94741 0-2.0326 0.49954-1.068 0.48232-1.9982 1.4297-0.91296 0.94741-1.5158 2.3255-0.6029 1.378-0.6029 3.1523 0 1.2919 0.37897 2.291 0.37896 0.98186 1.0163 1.6537 0.63734 0.6718 1.4814 1.0163 0.84405 0.32729 1.7915 0.32729 0.68902 0 1.2919-0.10335 0.60289-0.12058 1.1369-0.37896 0.55121-0.27561 1.068-0.70625t1.0163-1.068l2.4977 1.8776q-0.6718 0.94741-1.5158 1.6192-0.84405 0.65457-1.7742 1.068-0.93018 0.41341-1.9293 0.58567-0.98186 0.18948-1.9465 0.18948-1.757 0-3.2556-0.62012-1.4814-0.63735-2.5666-1.7398-1.068-1.1024-1.6881-2.5838-0.60289-1.4986-0.60289-3.2212 0-2.3427 0.8785-4.2892 0.87851-1.9637 2.3082-3.3762t3.2212-2.1876q1.8087-0.79238 3.6518-0.79238 0.86128 0 1.7226 0.17226 0.86128 0.15503 1.6536 0.51677 0.79238 0.34451 1.4814 0.8785 0.68903 0.53399 1.2402 1.2575h2.1532l-0.48231 2.9628h-3.6002z"/>
   <path d="m181.22 45.168h2.98l1.0508-4.2719 3.6346-1.4814-1.3608 5.7533h3.7552l-0.70625 2.9628h-3.7552l-2.2738 9.6291q-0.0861 0.34451-0.17225 0.70625-0.0689 0.34451-0.0689 0.7407 0 0.77515 0.41342 1.1024 0.43064 0.31006 1.3436 0.31006 0.98186 0 2.3599-0.56844l0.29283 2.4633q-0.91295 0.43064-1.757 0.6718-0.84405 0.25838-1.8776 0.25838-1.0852 0-1.9809-0.27561-0.89573-0.25838-1.4814-0.86128-0.58567-0.62012-0.77515-1.602-0.18948-0.99908 0.13781-2.446l2.4805-10.129h-2.9456z"/>
   <path d="m192.31 60.964q0-0.46509 0.17226-0.8785 0.18948-0.41341 0.49954-0.70625 0.31006-0.31006 0.72347-0.48232 0.41342-0.18948 0.89574-0.18948 0.46509 0 0.8785 0.18948 0.41341 0.17226 0.70625 0.48232 0.31006 0.29284 0.48232 0.70625 0.18948 0.41341 0.18948 0.8785t-0.18948 0.89573q-0.17226 0.41342-0.48232 0.7407-0.29284 0.31006-0.70625 0.49954-0.41341 0.18948-0.8785 0.18948-0.48232 0-0.89574-0.18948-0.41341-0.18948-0.72347-0.49954-0.31006-0.32729-0.49954-0.7407-0.17226-0.43064-0.17226-0.89573z"/>
   <path d="m203.22 45.168h6.9764l-4.4442 19.155q-0.36174 1.5675-1.0508 2.8078-0.68903 1.2575-1.6709 2.1187-0.98185 0.8785-2.2221 1.3608-1.223 0.48232-2.67 0.51677l0.27561-2.4977q1.5503-0.22393 2.5149-1.4297 0.96464-1.2058 1.4125-3.204l3.6863-15.865h-3.514zm3.6346-6.2873q0-0.46509 0.17226-0.8785 0.18948-0.41341 0.49954-0.70625 0.31006-0.31006 0.72348-0.48232 0.41341-0.18948 0.89573-0.18948 0.46509 0 0.8785 0.18948 0.41342 0.17226 0.70625 0.48232 0.31006 0.29284 0.48232 0.70625 0.18948 0.41341 0.18948 0.8785t-0.18948 0.89573q-0.17226 0.41341-0.48232 0.7407-0.29283 0.31006-0.70625 0.49954-0.41341 0.18948-0.8785 0.18948-0.48232 0-0.89573-0.18948-0.41342-0.18948-0.72348-0.49954-0.31006-0.32729-0.49954-0.7407-0.17226-0.43064-0.17226-0.89573z"/>
   <path d="m224.44 50.129q-0.0172-0.6718-0.27561-1.1886-0.24116-0.51677-0.68902-0.86128-0.43064-0.36174-1.0335-0.53399-0.58567-0.18948-1.2747-0.18948t-1.3092 0.17226q-0.62012 0.15503-1.0852 0.48232-0.46509 0.32729-0.7407 0.79238-0.25838 0.46509-0.25838 1.0508 0 0.68902 0.43064 1.1541 0.44786 0.44787 1.3953 0.82683l3.3245 1.1886q1.5158 0.55122 2.3082 1.7226 0.79237 1.1541 0.79237 2.8078 0 1.4814-0.55121 2.6011-0.534 1.1197-1.4986 1.8776-0.96463 0.75793-2.3082 1.1369-1.3264 0.37896-2.9111 0.37896-0.96464 0-1.8431-0.15503-0.87851-0.15503-1.6364-0.46509-0.7407-0.32729-1.3092-0.79238-0.55121-0.48232-0.86128-1.1024h-1.8259l0.70625-2.9628h3.6346q-0.0861 0.6718 0.17226 1.1886 0.25838 0.51677 0.7407 0.8785 0.48231 0.34451 1.1369 0.51677 0.6718 0.17226 1.4125 0.17226t1.378-0.18948q0.65457-0.18948 1.1369-0.55122 0.48231-0.36174 0.75792-0.89573 0.29284-0.53399 0.29284-1.223 0-0.65457-0.46509-1.1886-0.46509-0.55122-1.447-0.89573l-3.1695-1.1541q-1.5331-0.6029-2.3599-1.757-0.82683-1.1713-0.82683-2.6183 0-1.2747 0.44786-2.3255 0.44787-1.0508 1.3264-1.8087 0.87851-0.75792 2.2049-1.1713t3.0834-0.41341q1.0163 0 1.8776 0.20671 0.86128 0.18948 1.5331 0.53399 0.6718 0.34451 1.1541 0.8096 0.48231 0.44787 0.77515 0.98186h1.9293l-0.70625 2.9628h-3.5657z"/>
  </g>
 </g>
</svg>
